<mxfile host="app.diagrams.net" modified="2022-10-03T08:00:45.114Z" agent="5.0 (Windows NT 10.0; Win64; x64) AppleWebKit/537.36 (KHTML, like Gecko) Chrome/105.0.0.0 Safari/537.36 Edg/105.0.1343.53" etag="L684HT6pIYRG9DeNGnZ4" version="20.4.0" type="github">
  <diagram id="5NevkD6eyl63rK0qc-1e" name="Page-1">
    <mxGraphModel dx="814" dy="531" grid="1" gridSize="10" guides="1" tooltips="1" connect="1" arrows="1" fold="1" page="1" pageScale="1" pageWidth="850" pageHeight="1100" math="0" shadow="0">
      <root>
        <mxCell id="0" />
        <mxCell id="1" parent="0" />
        <mxCell id="AvcMGMHJoSDBEEvndyEJ-1" value="&lt;div style=&quot;&quot;&gt;&lt;span style=&quot;background-color: initial;&quot;&gt;Food Court&amp;nbsp; &amp;nbsp;&amp;nbsp;&lt;/span&gt;&lt;/div&gt;" style="shape=rect;html=1;verticalAlign=top;fontStyle=1;whiteSpace=wrap;align=right;" vertex="1" parent="1">
          <mxGeometry x="160" y="10" width="440" height="520" as="geometry" />
        </mxCell>
        <mxCell id="AvcMGMHJoSDBEEvndyEJ-2" value="Admin" style="shape=umlActor;html=1;verticalLabelPosition=bottom;verticalAlign=top;align=center;" vertex="1" parent="1">
          <mxGeometry x="80" y="90" width="30" height="60" as="geometry" />
        </mxCell>
        <mxCell id="AvcMGMHJoSDBEEvndyEJ-3" value="Login" style="ellipse;whiteSpace=wrap;html=1;" vertex="1" parent="1">
          <mxGeometry x="335" y="90" width="90" height="40" as="geometry" />
        </mxCell>
        <mxCell id="AvcMGMHJoSDBEEvndyEJ-4" value="" style="edgeStyle=none;html=1;endArrow=none;verticalAlign=bottom;rounded=0;entryX=0;entryY=0.5;entryDx=0;entryDy=0;" edge="1" parent="1" target="AvcMGMHJoSDBEEvndyEJ-3">
          <mxGeometry width="160" relative="1" as="geometry">
            <mxPoint x="120" y="120" as="sourcePoint" />
            <mxPoint x="430" y="180" as="targetPoint" />
          </mxGeometry>
        </mxCell>
        <mxCell id="AvcMGMHJoSDBEEvndyEJ-5" value="Penjual" style="shape=umlActor;html=1;verticalLabelPosition=bottom;verticalAlign=top;align=center;" vertex="1" parent="1">
          <mxGeometry x="640" y="90" width="30" height="60" as="geometry" />
        </mxCell>
        <mxCell id="AvcMGMHJoSDBEEvndyEJ-6" value="" style="edgeStyle=none;html=1;endArrow=none;verticalAlign=bottom;rounded=0;exitX=1;exitY=0.5;exitDx=0;exitDy=0;" edge="1" parent="1" source="AvcMGMHJoSDBEEvndyEJ-3">
          <mxGeometry width="160" relative="1" as="geometry">
            <mxPoint x="130" y="130" as="sourcePoint" />
            <mxPoint x="630" y="120" as="targetPoint" />
          </mxGeometry>
        </mxCell>
        <mxCell id="AvcMGMHJoSDBEEvndyEJ-7" value="Direktur" style="shape=umlActor;html=1;verticalLabelPosition=bottom;verticalAlign=top;align=center;" vertex="1" parent="1">
          <mxGeometry x="640" y="270" width="30" height="60" as="geometry" />
        </mxCell>
        <mxCell id="AvcMGMHJoSDBEEvndyEJ-8" value="" style="edgeStyle=none;html=1;endArrow=none;verticalAlign=bottom;rounded=0;entryX=0.5;entryY=1;entryDx=0;entryDy=0;" edge="1" parent="1" target="AvcMGMHJoSDBEEvndyEJ-3">
          <mxGeometry width="160" relative="1" as="geometry">
            <mxPoint x="630" y="310" as="sourcePoint" />
            <mxPoint x="345" y="120" as="targetPoint" />
          </mxGeometry>
        </mxCell>
        <mxCell id="AvcMGMHJoSDBEEvndyEJ-9" value="Olah data user" style="ellipse;whiteSpace=wrap;html=1;" vertex="1" parent="1">
          <mxGeometry x="170" y="250" width="90" height="40" as="geometry" />
        </mxCell>
        <mxCell id="AvcMGMHJoSDBEEvndyEJ-11" value="" style="edgeStyle=none;html=1;endArrow=none;verticalAlign=bottom;rounded=0;entryX=0;entryY=0.5;entryDx=0;entryDy=0;" edge="1" parent="1" target="AvcMGMHJoSDBEEvndyEJ-9">
          <mxGeometry width="160" relative="1" as="geometry">
            <mxPoint x="120" y="120" as="sourcePoint" />
            <mxPoint x="355" y="130" as="targetPoint" />
          </mxGeometry>
        </mxCell>
        <mxCell id="AvcMGMHJoSDBEEvndyEJ-12" value="Lihat data user" style="ellipse;whiteSpace=wrap;html=1;" vertex="1" parent="1">
          <mxGeometry x="170" y="340" width="90" height="40" as="geometry" />
        </mxCell>
        <mxCell id="AvcMGMHJoSDBEEvndyEJ-13" value="&amp;lt;&amp;lt;extend&amp;gt;&amp;gt;" style="edgeStyle=none;html=1;startArrow=open;endArrow=none;startSize=12;verticalAlign=bottom;dashed=1;labelBackgroundColor=none;rounded=0;exitX=0.5;exitY=1;exitDx=0;exitDy=0;" edge="1" parent="1" source="AvcMGMHJoSDBEEvndyEJ-9" target="AvcMGMHJoSDBEEvndyEJ-12">
          <mxGeometry x="0.2" y="-5" width="160" relative="1" as="geometry">
            <mxPoint x="120" y="380" as="sourcePoint" />
            <mxPoint x="280" y="380" as="targetPoint" />
            <mxPoint as="offset" />
          </mxGeometry>
        </mxCell>
        <mxCell id="AvcMGMHJoSDBEEvndyEJ-14" value="Olah data saldo" style="ellipse;whiteSpace=wrap;html=1;" vertex="1" parent="1">
          <mxGeometry x="270" y="140" width="90" height="40" as="geometry" />
        </mxCell>
        <mxCell id="AvcMGMHJoSDBEEvndyEJ-15" value="" style="edgeStyle=none;html=1;endArrow=none;verticalAlign=bottom;rounded=0;entryX=0;entryY=0.5;entryDx=0;entryDy=0;" edge="1" parent="1" target="AvcMGMHJoSDBEEvndyEJ-14">
          <mxGeometry width="160" relative="1" as="geometry">
            <mxPoint x="120" y="120" as="sourcePoint" />
            <mxPoint x="365" y="140" as="targetPoint" />
          </mxGeometry>
        </mxCell>
        <mxCell id="AvcMGMHJoSDBEEvndyEJ-16" value="Olah data gerai" style="ellipse;whiteSpace=wrap;html=1;" vertex="1" parent="1">
          <mxGeometry x="200" y="190" width="90" height="40" as="geometry" />
        </mxCell>
        <mxCell id="AvcMGMHJoSDBEEvndyEJ-17" value="" style="edgeStyle=none;html=1;endArrow=none;verticalAlign=bottom;rounded=0;entryX=0;entryY=0.5;entryDx=0;entryDy=0;" edge="1" parent="1" target="AvcMGMHJoSDBEEvndyEJ-16">
          <mxGeometry width="160" relative="1" as="geometry">
            <mxPoint x="120" y="120" as="sourcePoint" />
            <mxPoint x="375" y="150" as="targetPoint" />
          </mxGeometry>
        </mxCell>
        <mxCell id="AvcMGMHJoSDBEEvndyEJ-18" value="" style="edgeStyle=none;html=1;endArrow=none;verticalAlign=bottom;rounded=0;exitX=1;exitY=0.5;exitDx=0;exitDy=0;" edge="1" parent="1" source="AvcMGMHJoSDBEEvndyEJ-16">
          <mxGeometry width="160" relative="1" as="geometry">
            <mxPoint x="170" y="170" as="sourcePoint" />
            <mxPoint x="630" y="120" as="targetPoint" />
          </mxGeometry>
        </mxCell>
        <mxCell id="AvcMGMHJoSDBEEvndyEJ-19" value="Olah data transaksi" style="ellipse;whiteSpace=wrap;html=1;" vertex="1" parent="1">
          <mxGeometry x="490" y="280" width="90" height="40" as="geometry" />
        </mxCell>
        <mxCell id="AvcMGMHJoSDBEEvndyEJ-21" value="" style="edgeStyle=none;html=1;endArrow=none;verticalAlign=bottom;rounded=0;exitX=1;exitY=0;exitDx=0;exitDy=0;" edge="1" parent="1" source="AvcMGMHJoSDBEEvndyEJ-19">
          <mxGeometry width="160" relative="1" as="geometry">
            <mxPoint x="180" y="180" as="sourcePoint" />
            <mxPoint x="630" y="120" as="targetPoint" />
          </mxGeometry>
        </mxCell>
        <mxCell id="AvcMGMHJoSDBEEvndyEJ-22" value="Lihat Saldo" style="ellipse;whiteSpace=wrap;html=1;" vertex="1" parent="1">
          <mxGeometry x="370" y="230" width="90" height="40" as="geometry" />
        </mxCell>
        <mxCell id="AvcMGMHJoSDBEEvndyEJ-23" value="&amp;lt;&amp;lt;extend&amp;gt;&amp;gt;" style="edgeStyle=none;html=1;startArrow=open;endArrow=none;startSize=12;verticalAlign=bottom;dashed=1;labelBackgroundColor=none;rounded=0;exitX=1;exitY=1;exitDx=0;exitDy=0;" edge="1" parent="1" source="AvcMGMHJoSDBEEvndyEJ-14" target="AvcMGMHJoSDBEEvndyEJ-22">
          <mxGeometry x="0.2" y="-5" width="160" relative="1" as="geometry">
            <mxPoint x="255" y="300" as="sourcePoint" />
            <mxPoint x="255" y="350" as="targetPoint" />
            <mxPoint as="offset" />
          </mxGeometry>
        </mxCell>
        <mxCell id="AvcMGMHJoSDBEEvndyEJ-24" value="Pembeli" style="shape=umlActor;html=1;verticalLabelPosition=bottom;verticalAlign=top;align=center;" vertex="1" parent="1">
          <mxGeometry x="640" y="420" width="30" height="60" as="geometry" />
        </mxCell>
        <mxCell id="AvcMGMHJoSDBEEvndyEJ-25" value="" style="edgeStyle=none;html=1;endArrow=none;verticalAlign=bottom;rounded=0;" edge="1" parent="1" source="AvcMGMHJoSDBEEvndyEJ-22">
          <mxGeometry width="160" relative="1" as="geometry">
            <mxPoint x="130" y="130" as="sourcePoint" />
            <mxPoint x="630" y="450" as="targetPoint" />
          </mxGeometry>
        </mxCell>
        <mxCell id="AvcMGMHJoSDBEEvndyEJ-26" value="Lihat Laporan" style="ellipse;whiteSpace=wrap;html=1;" vertex="1" parent="1">
          <mxGeometry x="380" y="420" width="90" height="40" as="geometry" />
        </mxCell>
        <mxCell id="AvcMGMHJoSDBEEvndyEJ-27" value="" style="edgeStyle=none;html=1;endArrow=none;verticalAlign=bottom;rounded=0;entryX=1;entryY=0.5;entryDx=0;entryDy=0;" edge="1" parent="1" target="AvcMGMHJoSDBEEvndyEJ-26">
          <mxGeometry width="160" relative="1" as="geometry">
            <mxPoint x="630" y="310" as="sourcePoint" />
            <mxPoint x="220" y="230" as="targetPoint" />
          </mxGeometry>
        </mxCell>
        <mxCell id="AvcMGMHJoSDBEEvndyEJ-28" value="Laporan" style="ellipse;whiteSpace=wrap;html=1;" vertex="1" parent="1">
          <mxGeometry x="320" y="320" width="90" height="40" as="geometry" />
        </mxCell>
        <mxCell id="AvcMGMHJoSDBEEvndyEJ-29" value="&amp;lt;&amp;lt;include&amp;gt;&amp;gt;" style="edgeStyle=none;html=1;endArrow=open;verticalAlign=bottom;dashed=1;labelBackgroundColor=none;rounded=0;exitX=1;exitY=1;exitDx=0;exitDy=0;" edge="1" parent="1" source="AvcMGMHJoSDBEEvndyEJ-16" target="AvcMGMHJoSDBEEvndyEJ-28">
          <mxGeometry width="160" relative="1" as="geometry">
            <mxPoint x="280" y="300" as="sourcePoint" />
            <mxPoint x="440" y="300" as="targetPoint" />
          </mxGeometry>
        </mxCell>
        <mxCell id="AvcMGMHJoSDBEEvndyEJ-30" value="&amp;lt;&amp;lt;include&amp;gt;&amp;gt;" style="edgeStyle=none;html=1;endArrow=open;verticalAlign=bottom;dashed=1;labelBackgroundColor=none;rounded=0;exitX=0;exitY=0.5;exitDx=0;exitDy=0;entryX=1;entryY=0;entryDx=0;entryDy=0;" edge="1" parent="1" source="AvcMGMHJoSDBEEvndyEJ-19" target="AvcMGMHJoSDBEEvndyEJ-28">
          <mxGeometry width="160" relative="1" as="geometry">
            <mxPoint x="286.8198051533967" y="234.14213562373197" as="sourcePoint" />
            <mxPoint x="373.5301088334437" y="331.38768396624926" as="targetPoint" />
          </mxGeometry>
        </mxCell>
        <mxCell id="AvcMGMHJoSDBEEvndyEJ-31" value="&amp;lt;&amp;lt;include&amp;gt;&amp;gt;" style="edgeStyle=none;html=1;endArrow=open;verticalAlign=bottom;dashed=1;labelBackgroundColor=none;rounded=0;exitX=0.667;exitY=1;exitDx=0;exitDy=0;exitPerimeter=0;" edge="1" parent="1" source="AvcMGMHJoSDBEEvndyEJ-14">
          <mxGeometry width="160" relative="1" as="geometry">
            <mxPoint x="286.8198051533967" y="234.14213562373197" as="sourcePoint" />
            <mxPoint x="361" y="320" as="targetPoint" />
          </mxGeometry>
        </mxCell>
        <mxCell id="AvcMGMHJoSDBEEvndyEJ-32" value="&amp;lt;&amp;lt;extend&amp;gt;&amp;gt;" style="edgeStyle=none;html=1;startArrow=open;endArrow=none;startSize=12;verticalAlign=bottom;dashed=1;labelBackgroundColor=none;rounded=0;exitX=0.5;exitY=1;exitDx=0;exitDy=0;entryX=0.5;entryY=0;entryDx=0;entryDy=0;" edge="1" parent="1" source="AvcMGMHJoSDBEEvndyEJ-28" target="AvcMGMHJoSDBEEvndyEJ-26">
          <mxGeometry x="0.25" y="-4" width="160" relative="1" as="geometry">
            <mxPoint x="310" y="420" as="sourcePoint" />
            <mxPoint x="470" y="420" as="targetPoint" />
            <mxPoint as="offset" />
          </mxGeometry>
        </mxCell>
        <mxCell id="AvcMGMHJoSDBEEvndyEJ-33" value="Olah data menu" style="ellipse;whiteSpace=wrap;html=1;" vertex="1" parent="1">
          <mxGeometry x="400" y="30" width="90" height="40" as="geometry" />
        </mxCell>
        <mxCell id="AvcMGMHJoSDBEEvndyEJ-34" value="" style="edgeStyle=none;html=1;endArrow=none;verticalAlign=bottom;rounded=0;exitX=1;exitY=0.5;exitDx=0;exitDy=0;" edge="1" parent="1" source="AvcMGMHJoSDBEEvndyEJ-33">
          <mxGeometry width="160" relative="1" as="geometry">
            <mxPoint x="130" y="130" as="sourcePoint" />
            <mxPoint x="630" y="120" as="targetPoint" />
          </mxGeometry>
        </mxCell>
      </root>
    </mxGraphModel>
  </diagram>
</mxfile>
